HIERARCHY
ROOT Hips
{
  OFFSET -31.5692 30.0904 122.763
  CHANNELS 6 Xposition Yposition Zposition Zrotation Xrotation Yrotation
  JOINT LeftUpLeg
  {
    OFFSET 8.64259 1.95398 -2.38835
    CHANNELS 3 Zrotation Xrotation Yrotation
    JOINT LeftLeg
    {
      OFFSET 43.7702 0 0
      CHANNELS 3 Zrotation Xrotation Yrotation
      JOINT LeftFoot
      {
        OFFSET 40.6238 0 0
        CHANNELS 3 Zrotation Xrotation Yrotation
        JOINT LeftToeBase
        {
          OFFSET 12.7242 0 0
          CHANNELS 3 Zrotation Xrotation Yrotation
          End Site
          {
            OFFSET 0 0 0
          }
        }
      }
    }
  }
  JOINT RightUpLeg
  {
    OFFSET -8.2249 1.95398 -2.59336
    CHANNELS 3 Zrotation Xrotation Yrotation
    JOINT RightLeg
    {
      OFFSET 43.5653 0 0
      CHANNELS 3 Zrotation Xrotation Yrotation
      JOINT RightFoot
      {
        OFFSET 40.6238 0 0
        CHANNELS 3 Zrotation Xrotation Yrotation
        JOINT RightToeBase
        {
          OFFSET 12.7242 0 0
          CHANNELS 3 Zrotation Xrotation Yrotation
          End Site
          {
            OFFSET 0 0 0
          }
        }
      }
    }
  }
  JOINT Spine
  {
    OFFSET 0.165834 0.87714 6.61349
    CHANNELS 3 Zrotation Xrotation Yrotation
    JOINT Spine1
    {
      OFFSET 7.38963 1.71661e-005 0
      CHANNELS 3 Zrotation Xrotation Yrotation
      JOINT Spine2
      {
        OFFSET 11.9445 1.14441e-005 0
        CHANNELS 3 Zrotation Xrotation Yrotation
        JOINT Spine3
        {
          OFFSET 14.7254 4.19617e-005 0
          CHANNELS 3 Zrotation Xrotation Yrotation
          JOINT Spine4
          {
            OFFSET 10.9679 0 0
            CHANNELS 3 Zrotation Xrotation Yrotation
            JOINT RightShoulder
            {
              OFFSET 2.46616 -1.6653 3.69651
              CHANNELS 3 Zrotation Xrotation Yrotation
              JOINT RightArm
              {
                OFFSET 13.0012 0 0
                CHANNELS 3 Zrotation Xrotation Yrotation
                JOINT RightForeArm
                {
                  OFFSET 28.7848 1.62311e-005 0
                  CHANNELS 3 Zrotation Xrotation Yrotation
                  JOINT RightHand
                  {
                    OFFSET 26.5688 1.62095e-005 0
                    CHANNELS 3 Zrotation Xrotation Yrotation
                    End Site
                    {
                      OFFSET 0 0 0
                    }
                  }
                }
              }
            }
            JOINT LeftShoulder
            {
              OFFSET 2.38034 -1.29275 -3.7523
              CHANNELS 3 Zrotation Xrotation Yrotation
              JOINT LeftArm
              {
                OFFSET 16.3182 6.07031e-005 0
                CHANNELS 3 Zrotation Xrotation Yrotation
                JOINT LeftForeArm
                {
                  OFFSET 27.0901 0 0
                  CHANNELS 3 Zrotation Xrotation Yrotation
                  JOINT LeftHand
                  {
                    OFFSET 24.5451 1.51738e-005 0
                    CHANNELS 3 Zrotation Xrotation Yrotation
                    End Site
                    {
                      OFFSET 0 0 0
                    }
                  }
                }
              }
            }
            JOINT Neck
            {
              OFFSET 5.0226 -0.0266342 0
              CHANNELS 3 Zrotation Xrotation Yrotation
              JOINT Head
              {
                OFFSET 6.69364 2.86102e-005 0
                CHANNELS 3 Zrotation Xrotation Yrotation
                End Site
                {
                  OFFSET 0 0 0
                }
              }
            }
          }
        }
      }
    }
  }
}
MOTION
Frames:	9
Frame Time:	0.0416667
-2652.2 555.399 -2467.73 -113.892 42.6412 -77.1588 -178.275 13.6377 128.759 -3.08475 23.0999 -0.796969 54.4154 -37.3105 -31.9398 11.0707 12.8146 -45.1734 135.462 -40.9107 -0.769711 -0.89135 -22.9005 0.0376773 103.221 36.8703 13.9583 7.15898 -6.68209 43.226 0.0661972 9.83254 -89.4875 7.20619 0.353068 0.994463 -4.46509 0.396511 0.977961 -26.9972 0.0378904 1.05459 -6.98456 0.0378895 1.0546 97.5497 -7.30622 -97.0309 61.7749 5.50681 2.93753 -36.793 -37.2761 -60.1953 -16.9822 -1.39199 -6.4298 -82.0803 -35.1043 89.2508 -15.7941 1.35636 -12.7462 65.2266 31.6889 -77.8426 37.7812 -13.7023 -33.854 15.1936 2.17635 0.136098 -16.3691 2.44087 -3.16294 
-2809.99 560.254 -2622.43 -111.557 43.5733 -77.7155 -170.261 -5.80626 135.269 -2.64704 25.8883 -0.742024 77.6375 -40.3395 -21.6402 14.506 13.9759 -47.9205 162.717 -15.3436 14.4229 -1.17608 -19.4942 0.11702 68.8598 47.7543 31.7463 8.18338 -7.20441 44.5379 -0.172715 9.97662 -89.624 6.92049 -0.183892 0.748778 -4.75065 -0.150763 0.756137 -27.2845 -0.400425 0.658898 -7.27184 -0.40042 0.658893 97.5724 -5.27826 -97.7737 57.3009 7.15789 7.25916 -39.8114 -34.0727 -65.6 -20.2946 -1.42223 -6.64136 -81.8659 -31.8884 89.2804 -11.4721 -0.777884 -19.9263 65.4754 26.4421 -78.7327 36.9995 -13.0419 -33.1469 14.8358 3.68257 1.06751 -14.91 3.46551 -1.63272 
-2959.99 566.879 -2769.87 -109.433 41.5205 -78.8654 -161.213 -20.9773 142.026 -2.09585 31.229 -0.66582 85.6029 -42.8687 -18.55 22.0902 16.5259 -55.8275 177.569 16.5452 26.7279 -1.85549 -9.23151 0.385205 28.0966 33.4423 41.3731 7.32334 -6.72606 43.2977 -0.627741 10.2807 -89.7308 6.31489 -1.14011 0.567676 -5.35575 -1.11401 0.617306 -27.8944 -1.25802 0.198744 -7.88179 -1.258 0.198746 97.1264 -4.34511 -99.7314 53.0403 9.87456 11.346 -39.9082 -26.626 -68.5311 -24.3204 -1.39991 -5.95605 -81.5518 -28.7973 89.5368 -6.77468 -4.87672 -26.2351 66.1792 25.0793 -79.6488 39.099 -13.2002 -31.4002 14.753 4.85467 1.42343 -12.9619 4.41656 -0.798519 
-3116.71 577.617 -2926 -108.467 37.7803 -79.7271 -152.099 -30.5144 151.9 -1.47911 37.5723 -0.560846 89.4584 -47.1608 -18.9013 10.2557 15.796 -52.0496 179.547 36.4742 38.5741 -3.03687 -0.437102 1.04588 17.7616 19.6686 31.1163 7.5076 -6.28639 42.0946 -1.06373 10.8122 -89.9122 5.25119 -2.08905 0.213049 -6.41812 -2.07764 0.304817 -28.9664 -2.05647 -0.424914 -8.95377 -2.05645 -0.424916 96.9392 -3.34288 -100.885 51.6027 12.2807 11.1171 -41.3413 -19.7685 -71.1255 -30.5503 -1.98318 -3.09045 -81.2413 -25.5219 89.7718 -6.13751 -8.43243 -33.0559 62.1257 27.5429 -76.0253 39.3177 -13.4951 -32.0345 15.6446 5.2738 1.47464 -12.5916 4.66296 0.805773 
-3279.68 591.432 -3084.95 -106.488 35.5547 -80.9158 -144.889 -31.9545 161.229 -1.16692 29.3545 -0.478656 85.1353 -55.2699 -23.9559 11.6054 14.8861 -49.9652 179.024 46.6458 44.8884 -4.19208 -0.314268 2.14365 21.2199 20.0332 27.8343 9.42392 -6.85361 43.3794 -1.19628 11.0987 -90.1452 4.67288 -2.44973 -0.254324 -6.99579 -2.45852 -0.146194 -29.5471 -2.25997 -0.97917 -9.53446 -2.25999 -0.979175 97.2793 -2.28411 -100.256 51.7245 11.738 4.60924 -44.4577 -17.2763 -73.8432 -41.352 -3.03451 -1.29881 -81.5579 -24.496 88.971 -8.50177 -10.257 -40.2689 60.547 33.8002 -72.2504 39.3144 -12.3027 -29.2602 15.62 5.32505 1.75683 -12.2152 4.58835 1.46495 
-3435.02 595.903 -3243.86 -105.039 34.7129 -82.0984 -145.968 -22.1913 164.556 -1.10202 21.9509 -0.530255 72.4176 -64.3907 -36.4096 9.64012 14.5617 -49.0998 179.78 47.6619 41.7568 -4.89174 -0.0627337 2.99482 28.8762 22.433 26.8896 9.67661 -6.90755 43.4916 -1.21407 11.2774 -90.1936 4.31392 -2.50437 -0.35997 -7.35463 -2.51777 -0.249337 -29.9061 -2.28035 -1.09636 -9.89346 -2.28035 -1.09636 97.7927 -2.78265 -98.1518 52.9942 7.64039 -8.21557 -44.2264 -15.8187 -75.7902 -43.9744 -4.38364 2.1446 -81.9435 -25.2535 88.2626 -13.4703 -8.82315 -47.2346 63.0952 39.7925 -70.2786 36.5574 -9.77506 -25.3067 15.5673 5.11529 1.76689 -13.2396 4.41724 0.912577 
-3571.09 555.288 -3384.57 -105.026 32.9859 -83.0565 -154.335 -4.15139 164.436 -0.95284 26.9399 -0.613455 41.0735 -71.4181 -65.7333 9.12891 14.5127 -48.9643 177.177 39.7489 35.8488 -5.27953 3.40667 3.04173 31.5078 24.8087 28.911 9.68242 -6.63268 42.6594 -1.23509 11.5967 -90.0469 3.67891 -2.48642 -0.0915698 -7.98965 -2.48803 0.0180166 -30.5424 -2.34389 -0.835023 -10.5297 -2.3439 -0.835024 97.6856 -3.93337 -98.0078 54.1867 3.62466 -21.6456 -48.4025 -17.4127 -76.4426 -39.9659 -4.61866 3.47642 -82.6518 -25.4535 86.8005 -17.8112 -6.36114 -52.8394 65.0094 45.2676 -68.9841 32.6083 -6.64795 -20.1356 16.1031 4.20113 0.950317 -12.6556 3.77754 0.547287 
-3720.42 525.175 -3499.73 -105.3 32.0856 -84.081 -162.681 15.6694 159.016 -0.843378 29.792 -0.745271 3.61665 -65.718 -94.1651 10.3157 14.8207 -49.7286 172.584 31.8846 30.6616 -4.24952 -0.393686 2.34196 31.1993 32.8421 32.6019 -5.94424 -5.52253 42.4318 -1.09877 11.8057 -89.9057 3.26274 -2.15745 0.170763 -8.40644 -2.14784 0.265583 -30.9555 -2.10898 -0.485831 -10.9429 -2.10898 -0.485843 97.5152 -4.08482 -98.5159 54.2851 0.0317136 -34.0479 -51.3237 -23.9972 -72.5515 -38.7808 -6.07329 8.10316 -83.3156 -26.5628 85.6241 -20.4198 -2.78653 -57.13 63.2049 53.6049 -65.8523 32.1332 -5.39782 -16.6123 16.3544 3.18362 0.866067 -12.0866 2.87163 -0.275419 
-3863.54 522.22 -3596.55 -106.968 32.6718 -84.1494 -167.932 33.2571 151.439 -0.930813 22.578 -0.867888 -4.54699 -54.781 -87.3528 8.22329 15.3674 -50.7656 165.275 23.4614 25.5796 -2.44154 -6.38384 1.09963 33.8878 39.8666 37.0286 2.95456 -6.82084 44.1107 -0.844413 12.1156 -89.7815 2.64465 -1.60086 0.404301 -9.02541 -1.58152 0.474376 -31.5685 -1.64834 -0.0956458 -11.5558 -1.64834 -0.0956562 97.2239 -3.73961 -99.6889 52.4702 -3.06514 -45.9665 -49.9309 -35.3478 -63.7864 -38.8673 -6.97107 10.4378 -83.9226 -28.259 84.71 -22.0199 0.498665 -58.8427 62.3364 56.3287 -65.2655 27.5543 -3.19761 -12.8217 16.9827 2.38803 0.998063 -12.0034 2.0946 -0.833319 
